# xmcd
#
# Track frame offsets:
#	150
#	11157
#	23960
#	37052
#	47205
#	59983
#	75901
#	90578
#	99267
#	110788
#
# Disc length: 1673 seconds
#
# Revision: 0
# Processed by: cddbd v1.5.2PL0 Copyright (c) Steve Scherf et al.
# Submitted via: EasyCDDAExtractor 16.0.6.1
#
DISCID=8106870a
DTITLE=Άνευ ερμηνευτού - Το χαμόγελο της Τζοκόντας-Μ. Χατζιδάκις
DYEAR=1998
DGENRE=Ορχηστρική
TTITLE0=Όταν έρχονται τα σύννεφα [Μάνος Χατζιδάκις]
TTITLE1=Κοντέσσα Εστερχάζυ [Μάνος Χατζιδάκις]
TTITLE2=Η παρθένα της γειτονιάς μου [Μάνος Χατζιδάκις]
TTITLE3=Βροχή [Μάνος Χατζιδάκις]
TTITLE4=Προσωπογραφία της μητέρα μου [Μάνος Χατζιδάκις]
TTITLE5=Το κοντσέρτο [Μάνος Χατζιδάκις]
TTITLE6=Ο κ. Νολλ [Μάνος Χατζιδάκις]
TTITLE7=Οι δολοφόνοι [Μάνος Χατζιδάκις]
TTITLE8=Βραδινή επιστροφή [Μάνος Χατζιδάκις]
TTITLE9=Χορός με τη σκιά μου [Μάνος Χατζιδάκις]
EXTD=
EXTT0=
EXTT1=
EXTT2=
EXTT3=
EXTT4=
EXTT5=
EXTT6=
EXTT7=
EXTT8=
EXTT9=
PLAYORDER=
